<svg height="800" width="800" xmlns="http://www.w3.org/2000/svg" viewBox="0 0 512.001 512.001" xml:space="preserve"><path style="fill:#9e8cec" d="M511.409 237.979c-4.279-64.666-32.76-124.696-80.203-169.035C383.637 24.484 321.414 0 255.998 0 190.581 0 128.356 24.485 80.787 68.946 33.346 113.285 4.868 173.316.594 237.983c-.033.511-.05 1.022-.05 1.533v63.474c0 12.827 10.398 23.223 23.223 23.223 12.824 0 23.223-10.396 23.223-23.223v-62.688c7.575-108.768 99.237-193.855 209.007-193.855 109.766 0 201.432 85.086 209.014 193.852v62.691c0 12.827 10.398 23.223 23.223 23.223 12.824 0 23.223-10.396 23.223-23.223v-63.477a23.09 23.09 0 0 0-.048-1.534z"/><path style="fill:#6a56cf" d="M511.409 237.979c-4.279-64.666-32.76-124.696-80.203-169.035C383.639 24.485 321.415 0 256.002 0v46.447c109.765.002 201.43 85.086 209.011 193.852v62.691c0 12.827 10.398 23.223 23.223 23.223 12.824 0 23.223-10.396 23.223-23.223v-63.477c0-.512-.018-1.023-.05-1.534z"/><path style="fill:#5b699c" d="M138.883 296.252c-2.891-9.537-11.742-16.484-22.223-16.484H23.766c-12.826 0-23.223 10.399-23.223 23.223v185.787c0 12.827 10.398 23.223 23.223 23.223h92.894c10.481 0 19.331-6.945 22.223-16.484 9.537-2.889 16.482-11.742 16.482-22.222V318.473c.002-10.481-6.945-19.332-16.482-22.221z"/><path style="fill:#2d4175" d="M488.236 279.766h-92.894c-10.482 0-19.331 6.947-22.223 16.484-9.537 2.889-16.482 11.74-16.482 22.222v154.823c0 10.481 6.945 19.333 16.482 22.222 2.89 9.536 11.741 16.483 22.223 16.483h92.894c12.824 0 23.223-10.396 23.223-23.223V302.989c0-12.824-10.4-23.223-23.223-23.223z"/></svg>