<svg height="800" width="800" xmlns="http://www.w3.org/2000/svg" viewBox="0 0 511.999 511.999" xml:space="preserve"><path style="fill:#abb8b9" d="M255.999 320.002c-35.352 0-64.001-28.649-64.001-64.002 0-35.351 28.649-64 64.001-64S320 220.649 320 256c0 35.352-28.649 64.002-64.001 64.002zm245.334-64.003c0-135.493-109.839-245.333-245.334-245.333-135.492 0-245.331 109.839-245.331 245.333s109.839 245.332 245.331 245.332c135.494 0 245.334-109.837 245.334-245.332z"/><path style="fill:#657694" d="M191.998 255.999c0 35.353 28.649 64.002 64.001 64.002S320 291.352 320 255.999c0-35.351-28.649-64-64.001-64-35.351 0-64.001 28.65-64.001 64zm85.334 0c0 11.78-9.548 21.333-21.333 21.333-11.783 0-21.332-9.553-21.332-21.333 0-11.784 9.548-21.333 21.332-21.333 11.784.001 21.333 9.549 21.333 21.333z"/><path style="fill:#000003" d="M255.999.001C114.841.001 0 114.84 0 255.999c0 141.158 114.841 255.999 255.999 255.999 141.159 0 256-114.841 256-255.999C512 114.84 397.159.001 255.999.001zm0 490.663C126.605 490.664 21.335 385.395 21.335 256S126.605 21.334 255.999 21.334s234.665 105.27 234.665 234.664-105.27 234.666-234.665 234.666z"/><path style="fill:#000003" d="M287.999 255.999c0-17.645-14.355-32-32-32S224 238.354 224 255.999s14.354 32 31.999 32 32-14.355 32-32zm-42.664 0c0-5.882 4.784-10.665 10.664-10.665 5.881 0 10.665 4.783 10.665 10.665 0 5.88-4.784 10.665-10.665 10.665-5.879.001-10.664-4.785-10.664-10.665z"/><path style="fill:#000003" d="M330.668 255.999c0-41.172-33.496-74.668-74.669-74.668s-74.669 33.496-74.669 74.668c0 41.17 33.496 74.666 74.669 74.666s74.669-33.496 74.669-74.666zm-128.003 0c0-29.408 23.926-53.333 53.334-53.333s53.334 23.925 53.334 53.333c0 29.406-23.926 53.331-53.334 53.331s-53.334-23.925-53.334-53.331zM131.001 245.332H64.3c4.875-89.873 71.006-164.212 160.848-178.837 5.815-.946 9.762-6.427 8.816-12.242-.947-5.815-6.426-9.761-12.243-8.816-49.928 8.128-95.47 33.825-128.239 72.361C60.712 156.334 42.665 205.415 42.665 256c0 5.889 4.777 10.667 10.667 10.667H131c5.892 0 10.667-4.778 10.667-10.667.002-5.892-4.774-10.668-10.666-10.668zM458.667 245.332h-77.668c-5.891 0-10.667 4.776-10.667 10.667 0 5.889 4.777 10.667 10.667 10.667h66.699c-4.875 89.873-71.006 164.212-160.848 178.835-5.815.948-9.762 6.427-8.816 12.243.852 5.236 5.378 8.957 10.516 8.957.569 0 1.146-.046 1.726-.142 49.928-8.128 95.47-33.825 128.239-72.359 32.77-38.536 50.817-87.617 50.817-138.202.003-5.89-4.774-10.666-10.665-10.666zM254.6 64.004h.098c.433-.004.872-.006 1.302-.004 5.892 0 10.667-4.778 10.667-10.667 0-5.892-4.776-10.667-10.667-10.667-.496 0-.996 0-1.493.004-5.891.052-10.625 4.871-10.57 10.763.051 5.859 4.816 10.571 10.663 10.571zM257.397 447.996l-1.398.004c-5.892 0-10.667 4.776-10.667 10.667s4.776 10.667 10.667 10.667l1.399-.004c5.892 0 10.667-4.777 10.667-10.667 0-5.891-4.776-10.667-10.668-10.667z"/></svg>